<svg width="33" height="44" viewBox="0 0 33 44" fill="none" xmlns="http://www.w3.org/2000/svg">
<path d="M4.29557 27.6545C4.29557 28.5511 4.29557 29.6837 4.16112 30.2973C4.02703 31.1939 3.66909 31.8545 2.63999 32.1377C2.05821 32.3265 0 32.3736 0 32.3736V33.0343H9.4858C23.8489 33.0343 25.8176 26.6162 25.8176 22.9825C25.8176 18.5464 22.6856 14.4408 14.5868 13.4024C18.8375 12.3172 20.5825 9.58008 20.5825 7.07871C20.5825 3.53945 18.3006 0 9.48597 0H0.000174602V0.660562C0.000174602 0.660562 2.05839 0.707705 2.64016 0.896464C3.66927 1.17969 4.0272 1.84044 4.1613 2.73709C4.29574 3.35069 4.29574 4.95504 4.29574 6.18206L4.29557 27.6545ZM10.2911 13.9215H11.1861C18.4794 14.3935 22.1036 18.4048 22.1036 22.4633C22.1036 29.731 14.4077 32.2793 9.4858 32.2793H8.05388V0.566091H9.4858C14.4525 0.566091 16.8238 3.01995 16.8238 6.79548C16.8238 10.8067 14.0497 13.1663 11.1861 13.1663H10.2911V13.9215Z" fill="#8A817B"/>
<path d="M31.7472 6.71795H31.1209L30.584 12.1921C30.584 12.1921 27.944 9.6438 23.8723 9.6438C16.3553 9.6438 9.82242 15.3067 9.82242 26.869C9.82242 32.3905 13.4019 44 23.7827 44C28.7493 44 33 40.9797 33 33.712C33 29.4176 30.8971 23.8961 29.5101 20.8759L28.8838 21.2061C28.8838 21.2061 32.2841 28.4266 32.2841 33.7594C32.2841 39.2335 29.7337 41.7819 26.8254 41.7819C11.6121 41.7819 6.10862 12.0034 20.2032 12.0034C24.8567 12.0034 28.6599 14.5047 31.1209 19.1767H31.7472V6.71795Z" fill="#8A817B"/>
</svg>
